<svg xmlns="http://www.w3.org/2000/svg" xmlns:xlink="http://www.w3.org/1999/xlink" width="103px" height="203px" viewBox="0 0 103 203" version="1.1">
    <!-- Generator: Sketch 53 (72520) - https://sketchapp.com -->
    <title>Group</title>
    <desc>Created with Sketch.</desc>
    <defs>
        <polygon id="path-1" points="0.6617 0.5782 15.2347 0.5782 15.2347 85 0.6617 85"/>
        <polygon id="path-3" points="0.833922384 0.871 11.6356 0.871 11.6356 102.0711 0.833922384 102.0711"/>
        <polygon id="path-5" points="0.0511 0.871 10.8527777 0.871 10.8527777 102.0711 0.0511 102.0711"/>
        <polygon id="path-7" points="0 0.8049 102.686548 0.8049 102.686548 5.1149 0 5.1149"/>
    </defs>
    <g id="Taverna" stroke="none" stroke-width="1" fill="none" fill-rule="evenodd">
        <g id="Assets" transform="translate(-1069.000000, -172.000000)">
            <g id="Group" transform="translate(1069.000000, 171.129000)">
                <path d="M54.1207,57.7862 C53.4867,58.6282 52.4787,59.1732 51.3437,59.1732 C50.2077,59.1732 49.1997,58.6282 48.5647,57.7862 C47.9977,58.4822 47.6867,59.3922 47.7727,60.3652 L49.9147,84.6852 L52.7717,84.6852 L54.9137,60.3652 C54.9997,59.3922 54.6887,58.4822 54.1207,57.7862" id="Fill-1" fill="#231F20"/>
                <path d="M50.568,53.8775 C51.466,53.8775 52.194,54.6055 52.194,55.5035 C52.194,56.4015 51.466,57.1295 50.568,57.1295 C49.671,57.1295 48.942,56.4015 48.942,55.5035 C48.942,54.6055 49.671,53.8775 50.568,53.8775 M51.343,59.1735 C52.479,59.1735 53.487,58.6285 54.121,57.7865 C54.558,57.2055 54.818,56.4825 54.818,55.6995 C54.818,54.4605 54.169,53.3735 53.193,52.7585 C52.658,53.0965 52.023,53.2925 51.343,53.2925 C50.663,53.2925 50.029,53.0965 49.494,52.7585 C48.517,53.3735 47.869,54.4605 47.869,55.6995 C47.869,56.4825 48.129,57.2055 48.565,57.7865 C49.2,58.6285 50.208,59.1735 51.343,59.1735" id="Fill-3" fill="#454041"/>
                <path d="M48.942,49.4619 C48.942,48.5639 49.671,47.8359 50.568,47.8359 C51.466,47.8359 52.194,48.5639 52.194,49.4619 C52.194,50.3599 51.466,51.0869 50.568,51.0869 C49.671,51.0869 48.942,50.3599 48.942,49.4619 M53.193,52.7589 C54.169,52.1439 54.818,51.0569 54.818,49.8179 C54.818,48.5789 54.169,47.4929 53.193,46.8779 C52.658,47.2149 52.023,47.4119 51.343,47.4119 C50.663,47.4119 50.029,47.2149 49.494,46.8779 C48.517,47.4929 47.869,48.5789 47.869,49.8179 C47.869,51.0569 48.517,52.1439 49.494,52.7589 C50.029,53.0959 50.663,53.2929 51.343,53.2929 C52.023,53.2929 52.658,53.0959 53.193,52.7589" id="Fill-5" fill="#231F20"/>
                <path d="M48.942,43.6612 C48.942,42.7632 49.671,42.0352 50.568,42.0352 C51.466,42.0352 52.194,42.7632 52.194,43.6612 C52.194,44.5592 51.466,45.2862 50.568,45.2862 C49.671,45.2862 48.942,44.5592 48.942,43.6612 M53.193,46.8772 C54.169,46.2622 54.818,45.1762 54.818,43.9372 C54.818,42.6982 54.169,41.6112 53.193,40.9962 C52.658,41.3342 52.023,41.5302 51.343,41.5302 C50.663,41.5302 50.029,41.3342 49.494,40.9962 C48.517,41.6112 47.869,42.6982 47.869,43.9372 C47.869,45.1762 48.517,46.2622 49.494,46.8772 C50.029,47.2152 50.663,47.4112 51.343,47.4112 C52.023,47.4112 52.658,47.2152 53.193,46.8772" id="Fill-7" fill="#454041"/>
                <path d="M48.942,38.1011 C48.942,37.2031 49.671,36.4751 50.568,36.4751 C51.466,36.4751 52.194,37.2031 52.194,38.1011 C52.194,38.9991 51.466,39.7271 50.568,39.7271 C49.671,39.7271 48.942,38.9991 48.942,38.1011 M53.193,40.9971 C54.169,40.3811 54.818,39.2941 54.818,38.0561 C54.818,36.9671 54.316,35.9951 53.532,35.3581 C52.928,35.8251 52.171,36.1051 51.343,36.1051 C50.515,36.1051 49.757,35.8251 49.154,35.3581 C48.37,35.9951 47.869,36.9671 47.869,38.0561 C47.869,39.2941 48.517,40.3811 49.494,40.9971 C50.029,41.3341 50.663,41.5301 51.343,41.5301 C52.023,41.5301 52.658,41.3341 53.193,40.9971" id="Fill-9" fill="#231F20"/>
                <path d="M52.194,38.1011 C52.194,37.2031 51.466,36.4751 50.568,36.4751 C49.671,36.4751 48.942,37.2031 48.942,38.1011 C48.942,38.9991 49.671,39.7271 50.568,39.7271 C51.466,39.7271 52.194,38.9991 52.194,38.1011" id="Fill-11" fill="#454041"/>
                <path d="M52.194,49.4619 C52.194,48.5639 51.466,47.8359 50.568,47.8359 C49.671,47.8359 48.942,48.5639 48.942,49.4619 C48.942,50.3599 49.671,51.0869 50.568,51.0869 C51.466,51.0869 52.194,50.3599 52.194,49.4619" id="Fill-13" fill="#454041"/>
                <path d="M50.568,57.1294 C51.466,57.1294 52.194,56.4014 52.194,55.5034 C52.194,54.6054 51.466,53.8774 50.568,53.8774 C49.671,53.8774 48.942,54.6054 48.942,55.5034 C48.942,56.4014 49.671,57.1294 50.568,57.1294" id="Fill-15" fill="#575253"/>
                <path d="M52.194,43.6612 C52.194,42.7632 51.466,42.0352 50.568,42.0352 C49.671,42.0352 48.942,42.7632 48.942,43.6612 C48.942,44.5592 49.671,45.2862 50.568,45.2862 C51.466,45.2862 52.194,44.5592 52.194,43.6612" id="Fill-17" fill="#575253"/>
                <path d="M49.1539,35.3579 C49.7579,35.8249 50.5149,36.1049 51.3429,36.1049 C52.1719,36.1049 52.9279,35.8249 53.5319,35.3579 C54.4619,34.6389 55.0259,33.4769 54.9139,32.2059 L52.9109,9.4689 C52.3889,9.4609 51.8669,9.4549 51.3429,9.4549 C50.8189,9.4549 50.2969,9.4609 49.7749,9.4689 L47.7729,32.2059 C47.6609,33.4769 48.2239,34.6389 49.1539,35.3579" id="Fill-19" fill="#454041"/>
                <path d="M34.777,59.5205 C34.199,60.4025 33.228,61.0125 32.095,61.0855 C30.963,61.1605 29.921,60.6815 29.233,59.8825 C28.712,60.6135 28.461,61.5415 28.61,62.5075 L32.031,84.6855 L35.223,84.6855 L35.736,62.0425 C35.758,61.0655 35.389,60.1775 34.777,59.5205" id="Fill-21" fill="#231F20"/>
                <path d="M29.4606,57.5801 C29.4016,56.6841 30.0806,55.9101 30.9776,55.8511 C31.8726,55.7931 32.6466,56.4721 32.7056,57.3681 C32.7636,58.2641 32.0846,59.0381 31.1896,59.0971 C30.2926,59.1551 29.5196,58.4761 29.4606,57.5801 M34.7766,59.5201 C35.1756,58.9121 35.3876,58.1741 35.3366,57.3931 C35.2556,56.1561 34.5366,55.1141 33.5226,54.5641 C33.0106,54.9361 32.3916,55.1731 31.7126,55.2171 C31.0336,55.2621 30.3886,55.1071 29.8316,54.8051 C28.8986,55.4821 28.3206,56.6091 28.4016,57.8451 C28.4526,58.6271 28.7586,59.3311 29.2326,59.8821 C29.9206,60.6821 30.9626,61.1601 32.0956,61.0861 C33.2286,61.0121 34.1986,60.4021 34.7766,59.5201" id="Fill-23" fill="#454041"/>
                <path d="M29.067,51.5513 C29.008,50.6553 29.687,49.8813 30.583,49.8223 C31.479,49.7643 32.253,50.4433 32.311,51.3393 C32.37,52.2353 31.691,53.0093 30.795,53.0683 C29.899,53.1263 29.126,52.4473 29.067,51.5513 M33.523,54.5643 C34.457,53.8863 35.034,52.7593 34.953,51.5243 C34.872,50.2873 34.154,49.2453 33.14,48.6953 C32.628,49.0673 32.007,49.3043 31.329,49.3483 C30.65,49.3933 30.004,49.2383 29.448,48.9363 C28.514,49.6143 27.938,50.7403 28.018,51.9763 C28.099,53.2133 28.817,54.2553 29.832,54.8053 C30.388,55.1073 31.034,55.2613 31.713,55.2173 C32.391,55.1733 33.01,54.9363 33.523,54.5643" id="Fill-25" fill="#231F20"/>
                <path d="M28.6891,45.7627 C28.6301,44.8667 29.3091,44.0937 30.2051,44.0347 C31.1011,43.9757 31.8751,44.6547 31.9331,45.5507 C31.9921,46.4467 31.3131,47.2207 30.4171,47.2797 C29.5211,47.3377 28.7481,46.6587 28.6891,45.7627 M33.1401,48.6957 C34.0741,48.0177 34.6501,46.8917 34.5701,45.6557 C34.4891,44.4187 33.7711,43.3767 32.7561,42.8267 C32.2441,43.1987 31.6251,43.4357 30.9461,43.4807 C30.2671,43.5247 29.6221,43.3697 29.0651,43.0677 C28.1311,43.7457 27.5541,44.8717 27.6351,46.1087 C27.7161,47.3447 28.4341,48.3867 29.4481,48.9367 C30.0041,49.2387 30.6501,49.3927 31.3291,49.3487 C32.0071,49.3047 32.6271,49.0677 33.1401,48.6957" id="Fill-27" fill="#454041"/>
                <path d="M28.3268,40.2149 C28.2678,39.3189 28.9468,38.5449 29.8428,38.4859 C30.7388,38.4279 31.5128,39.1069 31.5708,40.0029 C31.6298,40.8989 30.9508,41.6729 30.0548,41.7309 C29.1588,41.7899 28.3858,41.1109 28.3268,40.2149 M32.7568,42.8269 C33.6898,42.1499 34.2668,41.0229 34.1858,39.7869 C34.1158,38.6999 33.5518,37.7629 32.7268,37.1779 C32.1558,37.6839 31.4188,38.0119 30.5928,38.0669 C29.7658,38.1199 28.9918,37.8899 28.3588,37.4639 C27.6178,38.1509 27.1808,39.1529 27.2528,40.2399 C27.3328,41.4759 28.0518,42.5179 29.0648,43.0679 C29.6218,43.3699 30.2668,43.5249 30.9458,43.4809 C31.6248,43.4359 32.2438,43.1989 32.7568,42.8269" id="Fill-29" fill="#231F20"/>
                <path d="M31.5709,40.003 C31.5119,39.107 30.7389,38.428 29.8419,38.486 C28.9469,38.545 28.2679,39.319 28.3269,40.215 C28.3849,41.111 29.1589,41.79 30.0539,41.731 C30.9509,41.672 31.6299,40.899 31.5709,40.003" id="Fill-31" fill="#454041"/>
                <path d="M32.3112,51.3394 C32.2522,50.4434 31.4792,49.7644 30.5822,49.8224 C29.6872,49.8814 29.0082,50.6554 29.0672,51.5514 C29.1252,52.4474 29.8992,53.1264 30.7942,53.0684 C31.6912,53.0094 32.3702,52.2354 32.3112,51.3394" id="Fill-33" fill="#454041"/>
                <path d="M32.7057,57.3682 C32.6457,56.4722 31.8727,55.7932 30.9767,55.8512 C30.0807,55.9102 29.4017,56.6842 29.4607,57.5802 C29.5187,58.4762 30.2927,59.1552 31.1887,59.0972 C32.0847,59.0382 32.7637,58.2642 32.7057,57.3682" id="Fill-35" fill="#575253"/>
                <path d="M31.9332,45.5508 C31.8742,44.6548 31.1012,43.9758 30.2042,44.0348 C29.3092,44.0928 28.6302,44.8668 28.6892,45.7628 C28.7472,46.6588 29.5212,47.3378 30.4162,47.2798 C31.3132,47.2208 31.9922,46.4468 31.9332,45.5508" id="Fill-37" fill="#575253"/>
                <path d="M28.359,37.4639 C28.992,37.8899 29.766,38.1199 30.592,38.0669 C31.419,38.0119 32.156,37.6839 32.727,37.1779 C33.609,36.4009 34.095,35.2039 33.901,33.9429 L30.489,11.8229 C29.4,12.0819 28.327,12.3629 27.267,12.6619 L26.775,34.4079 C26.746,35.6839 27.384,36.8069 28.359,37.4639" id="Fill-39" fill="#454041"/>
                <path d="M73.4538,59.8824 C72.7668,60.6814 71.7248,61.1604 70.5918,61.0864 C69.4578,61.0124 68.4868,60.4024 67.9098,59.5204 C67.2978,60.1774 66.9288,61.0654 66.9508,62.0424 L67.4638,84.6854 L70.6548,84.6854 L74.0768,62.5074 C74.2248,61.5424 73.9748,60.6134 73.4538,59.8824" id="Fill-41" fill="#231F20"/>
                <path d="M67.9616,57.3682 C68.0206,56.4722 68.7946,55.7932 69.6906,55.8512 C70.5866,55.9102 71.2656,56.6842 71.2066,57.5802 C71.1486,58.4762 70.3746,59.1552 69.4786,59.0972 C68.5826,59.0382 67.9026,58.2642 67.9616,57.3682 M70.5916,61.0862 C71.7246,61.1602 72.7666,60.6812 73.4536,59.8822 C73.9276,59.3312 74.2336,58.6272 74.2846,57.8452 C74.3656,56.6092 73.7886,55.4822 72.8556,54.8052 C72.2986,55.1072 71.6526,55.2622 70.9746,55.2172 C70.2956,55.1732 69.6756,54.9362 69.1636,54.5642 C68.1486,55.1142 67.4316,56.1562 67.3506,57.3922 C67.2996,58.1742 67.5116,58.9122 67.9096,59.5202 C68.4866,60.4022 69.4576,61.0122 70.5916,61.0862" id="Fill-43" fill="#454041"/>
                <path d="M68.3561,51.3394 C68.4141,50.4434 69.1881,49.7644 70.0841,49.8224 C70.9801,49.8814 71.6591,50.6554 71.6001,51.5514 C71.5421,52.4474 70.7681,53.1264 69.8721,53.0684 C68.9761,53.0094 68.2971,52.2354 68.3561,51.3394 M72.8551,54.8054 C73.8691,54.2554 74.5871,53.2134 74.6681,51.9764 C74.7491,50.7404 74.1721,49.6134 73.2381,48.9364 C72.6821,49.2384 72.0371,49.3934 71.3581,49.3484 C70.6791,49.3044 70.0591,49.0674 69.5461,48.6954 C68.5331,49.2454 67.8141,50.2874 67.7341,51.5244 C67.6531,52.7594 68.2291,53.8864 69.1641,54.5644 C69.6751,54.9364 70.2951,55.1724 70.9741,55.2174 C71.6531,55.2614 72.2981,55.1074 72.8551,54.8054" id="Fill-45" fill="#231F20"/>
                <path d="M68.734,45.5508 C68.792,44.6548 69.566,43.9758 70.462,44.0348 C71.358,44.0928 72.037,44.8668 71.978,45.7628 C71.92,46.6588 71.146,47.3378 70.25,47.2798 C69.354,47.2208 68.675,46.4468 68.734,45.5508 M73.238,48.9368 C74.253,48.3858 74.97,47.3438 75.051,46.1088 C75.131,44.8718 74.555,43.7458 73.622,43.0678 C73.065,43.3698 72.42,43.5248 71.741,43.4808 C71.062,43.4358 70.442,43.1988 69.929,42.8268 C68.916,43.3768 68.198,44.4188 68.117,45.6548 C68.036,46.8918 68.613,48.0178 69.546,48.6958 C70.059,49.0678 70.679,49.3048 71.358,49.3488 C72.037,49.3928 72.682,49.2388 73.238,48.9368" id="Fill-47" fill="#454041"/>
                <path d="M69.0963,40.003 C69.1543,39.107 69.9283,38.428 70.8243,38.486 C71.7203,38.545 72.3993,39.319 72.3403,40.215 C72.2823,41.111 71.5083,41.79 70.6123,41.731 C69.7163,41.672 69.0373,40.899 69.0963,40.003 M73.6213,43.068 C74.6353,42.518 75.3543,41.476 75.4343,40.24 C75.5053,39.153 75.0683,38.15 74.3273,37.464 C73.6953,37.89 72.9203,38.12 72.0943,38.066 C71.2683,38.012 70.5313,37.684 69.9583,37.178 C69.1353,37.763 68.5713,38.7 68.5003,39.787 C68.4193,41.023 68.9953,42.149 69.9293,42.827 C70.4423,43.199 71.0623,43.436 71.7413,43.481 C72.4193,43.524 73.0653,43.37 73.6213,43.068" id="Fill-49" fill="#231F20"/>
                <path d="M72.3405,40.2149 C72.3995,39.3189 71.7205,38.5449 70.8235,38.4859 C69.9285,38.4279 69.1535,39.1069 69.0965,40.0029 C69.0375,40.8989 69.7165,41.6729 70.6115,41.7309 C71.5085,41.7899 72.2815,41.1109 72.3405,40.2149" id="Fill-51" fill="#454041"/>
                <path d="M71.6002,51.5513 C71.6592,50.6553 70.9802,49.8813 70.0832,49.8223 C69.1882,49.7643 68.4132,50.4433 68.3562,51.3393 C68.2972,52.2353 68.9762,53.0093 69.8712,53.0683 C70.7682,53.1263 71.5412,52.4473 71.6002,51.5513" id="Fill-53" fill="#454041"/>
                <path d="M71.2067,57.5801 C71.2657,56.6841 70.5867,55.9101 69.6897,55.8511 C68.7947,55.7931 68.0197,56.4721 67.9617,57.3681 C67.9027,58.2641 68.5827,59.0381 69.4777,59.0971 C70.3747,59.1551 71.1477,58.4761 71.2067,57.5801" id="Fill-55" fill="#575253"/>
                <path d="M71.9782,45.7627 C72.0372,44.8667 71.3582,44.0937 70.4612,44.0347 C69.5662,43.9757 68.7912,44.6547 68.7342,45.5507 C68.6752,46.4467 69.3542,47.2207 70.2492,47.2797 C71.1462,47.3377 71.9192,46.6587 71.9782,45.7627" id="Fill-57" fill="#575253"/>
                <path d="M69.9586,37.1783 C70.5306,37.6833 71.2686,38.0123 72.0946,38.0663 C72.9206,38.1203 73.6946,37.8903 74.3276,37.4643 C75.3026,36.8073 75.9396,35.6833 75.9116,34.4083 L75.4196,12.6623 C74.3596,12.3633 73.2866,12.0813 72.1976,11.8233 L68.7856,33.9433 C68.5906,35.2033 69.0776,36.4003 69.9586,37.1783" id="Fill-59" fill="#454041"/>
                <polygon id="Fill-61" fill="#231F20" points="21.4811 180.4517 25.5331 180.9147 32.3371 118.5787 24.0251 118.5787"/>
                <polygon id="Fill-63" fill="#231F20" points="77.1539 180.9146 81.2059 180.4516 78.6619 118.5786 70.3479 118.5786"/>
                <polygon id="Fill-65" fill="#231F20" points="86.6471 84.6851 70.6551 84.6851 67.4631 84.6851 52.7721 84.6851 49.9151 84.6851 35.2231 84.6851 32.0311 84.6851 16.0401 84.6851 16.2511 88.9781 86.4351 88.9781"/>
                <path d="M27.2672,12.6621 C28.3272,12.3631 29.4002,12.0811 30.4892,11.8231 C36.5542,10.3811 43.0612,9.5771 49.7752,9.4691 C50.2962,9.4601 50.8192,9.4551 51.3432,9.4551 C51.8672,9.4551 52.3892,9.4601 52.9112,9.4691 C59.6242,9.5771 66.1322,10.3811 72.1982,11.8231 C73.2872,12.0811 74.3602,12.3631 75.4192,12.6621 C80.6922,14.1541 85.5802,16.1451 89.9142,18.5981 L90.1902,13.0161 C79.3372,7.4461 65.7142,4.4061 51.3432,4.4061 C36.9732,4.4061 23.3492,7.4441 12.4962,13.0131 L12.7722,18.5981 C17.1062,16.1451 21.9952,14.1541 27.2672,12.6621" id="Fill-67" fill="#231F20"/>
                <g id="Group-71" transform="translate(5.000000, 118.000000)">
                    <mask id="mask-2" fill="white">
                        <use xlink:href="#path-1"/>
                    </mask>
                    <g id="Clip-70"/>
                    <polygon id="Fill-69" fill="#454041" mask="url(#mask-2)" points="0.6617 84.3882 6.0187 85.0002 15.2347 0.5782 4.1077 0.5782"/>
                </g>
                <g id="Group-74" transform="translate(5.000000, 0.000000)">
                    <mask id="mask-4" fill="white">
                        <use xlink:href="#path-3"/>
                    </mask>
                    <g id="Clip-73"/>
                    <path d="M11.2516,88.9781 L11.0396,84.6851 L7.7726,18.5981 L7.4956,13.0131 L7.0416,3.8241 C6.9486,1.9381 5.2076,0.5711 3.3536,0.9271 C1.8156,1.2231 0.7386,2.6171 0.8406,4.1791 L6.8646,102.0711 L11.6356,102.0711 L11.2516,88.9781 Z" id="Fill-72" fill="#454041" mask="url(#mask-4)"/>
                </g>
                <polygon id="Fill-75" fill="#454041" points="91.6676 203 97.0236 202.388 93.5786 118.579 82.4506 118.579"/>
                <path d="M101.5016,110.1148 L66.2066,110.1148 L36.4806,110.1148 L1.1856,110.1148 C0.5876,110.1148 0.1846,109.7278 0.0496,109.2628 L0.0496,118.5788 L9.1076,118.5788 L20.2346,118.5788 L24.0246,118.5788 L32.3376,118.5788 L36.4806,118.5788 L66.2066,118.5788 L70.3486,118.5788 L78.6616,118.5788 L82.4506,118.5788 L93.5786,118.5788 L102.6376,118.5788 L102.6376,109.2628 C102.5026,109.7278 102.0996,110.1148 101.5016,110.1148" id="Fill-77" fill="#575253"/>
                <g id="Group-81" transform="translate(86.000000, 0.000000)">
                    <mask id="mask-6" fill="white">
                        <use xlink:href="#path-5"/>
                    </mask>
                    <g id="Clip-80"/>
                    <path d="M0.6471,84.6851 L0.4351,88.9781 L0.0511,102.0711 L4.8211,102.0711 L10.8461,4.1791 C10.9481,2.6171 9.8711,1.2231 8.3341,0.9271 C6.4791,0.5711 4.7381,1.9381 4.6451,3.8241 L4.1901,13.0161 L3.9151,18.5981 L0.6471,84.6851 Z" id="Fill-79" fill="#454041" mask="url(#mask-6)"/>
                </g>
                <polygon id="Fill-82" fill="#575253" points="90.8209 102.0713 86.0509 102.0713 66.2069 102.0713 36.4799 102.0713 16.6349 102.0713 11.8649 102.0713 4.6509 105.8043 98.0359 105.8043"/>
                <g id="Group-86" transform="translate(0.000000, 105.000000)">
                    <mask id="mask-8" fill="white">
                        <use xlink:href="#path-7"/>
                    </mask>
                    <g id="Clip-85"/>
                    <path d="M102.0455,2.8799 L98.0355,0.8049 L4.6505,0.8049 L0.6415,2.8799 C0.3245,3.0439 0.1335,3.2969 0.0495,3.5759 C-0.0175,3.7999 -0.0155,4.0409 0.0495,4.2629 C0.1845,4.7279 0.5875,5.1149 1.1855,5.1149 L36.4805,5.1149 L66.2065,5.1149 L101.5015,5.1149 C102.0995,5.1149 102.5025,4.7279 102.6375,4.2629 C102.7815,3.7639 102.6155,3.1749 102.0455,2.8799" id="Fill-84" fill="#70696B" mask="url(#mask-8)"/>
                </g>
            </g>
        </g>
    </g>
</svg>