<svg xmlns="http://www.w3.org/2000/svg" xmlns:xlink="http://www.w3.org/1999/xlink" width="605px" height="75px" viewBox="0 0 605 75" version="1.1">
    <!-- Generator: Sketch 53.1 (72631) - https://sketchapp.com -->
    <title>Logo1-White</title>
    <desc>Created with Sketch.</desc>
    <g id="Taverna" stroke="none" stroke-width="1" fill="none" fill-rule="evenodd">
        <g id="Assets" transform="translate(-71.000000, -181.000000)" fill="#000">
            <path d="M71,181 L71,202.211 C73.864,191.924 78.742,184.924 86.908,181 L71,181 Z M93.272,255.239 L120.847,255.239 C115.014,249.195 113.953,245.271 113.953,234.029 L113.953,202.211 C113.953,190.969 115.014,187.045 120.847,181 L93.272,181 C99.105,187.045 100.166,190.969 100.166,202.211 L100.166,234.029 C100.166,245.271 99.105,249.195 93.272,255.239 L93.272,255.239 Z M143.119,181 L127.211,181 C135.377,184.924 140.256,191.924 143.119,202.211 L143.119,181 Z M189.678,255.239 L234.222,255.239 C226.056,253.118 222.025,248.877 216.192,239.332 L183.42,181 C179.814,187.681 175.466,197.014 184.375,213.241 L186.92,217.696 C191.799,226.817 183.42,227.877 176.102,228.938 C187.451,229.999 195.829,233.498 199.011,239.332 C204.207,248.983 199.435,253.118 189.678,255.239 L189.678,255.239 Z M159.663,239.332 C156.481,248.877 153.3,252.059 143.755,255.239 L175.572,255.239 C166.027,252.059 162.846,248.877 159.663,239.332 L159.663,239.332 Z M257.238,196.908 C252.041,187.258 256.813,183.121 266.571,181 L222.026,181 C230.193,183.121 234.224,187.364 240.057,196.908 L272.829,255.239 C276.435,248.559 280.783,239.225 271.873,222.999 L257.238,196.908 Z M312.494,181 L280.676,181 C290.222,184.181 293.403,187.364 296.584,196.908 C299.767,187.364 302.949,184.181 312.494,181 L312.494,181 Z M326.494,255.239 L354.068,255.239 C348.235,249.195 347.174,245.271 347.174,234.029 L347.174,202.211 C347.174,190.969 348.235,187.045 354.068,181 L326.494,181 C332.327,187.045 333.387,190.969 333.387,202.211 L333.387,234.029 C333.387,245.271 332.327,249.195 326.494,255.239 L326.494,255.239 Z M380.583,181 L364.674,181 C374.219,184.181 377.401,187.364 380.583,196.908 L380.583,181 Z M353.008,217.378 C357.674,217.696 365.205,220.771 368.916,225.332 L368.916,209.424 C365.31,213.984 357.674,217.059 353.008,217.378 L353.008,217.378 Z M380.583,255.239 L380.583,239.332 C377.401,248.877 374.219,252.059 364.674,255.239 L380.583,255.239 Z M437.43,181 L409.855,181 C415.688,187.045 416.749,190.969 416.749,202.211 L416.749,234.029 C416.749,245.271 415.688,249.195 409.855,255.239 L437.43,255.239 C431.596,249.195 430.536,245.271 430.536,234.029 L430.536,202.211 C430.536,190.969 431.596,187.045 437.43,181 L437.43,181 Z M471.687,239.332 C467.233,231.483 462.248,227.24 451.748,226.18 C469.989,223.741 481.02,217.907 481.02,203.59 C481.02,185.879 465.11,181 448.036,181 C458.005,185.985 465.11,192.56 465.11,203.59 C465.11,214.62 458.005,221.302 442.733,226.18 C453.444,234.346 448.46,255.239 488.656,255.239 C480.489,253.118 477.202,249.089 471.687,239.332 L471.687,239.332 Z M560.245,223.423 L512.942,181 C512.942,192.984 512.942,202.53 523.76,212.817 L571.063,255.239 C571.063,243.256 571.063,233.71 560.245,223.423 L560.245,223.423 Z M586.971,181 L555.153,181 C564.699,184.181 567.88,187.364 571.063,196.908 C574.245,187.364 577.425,184.181 586.971,181 L586.971,181 Z M512.624,239.332 C509.442,248.877 506.261,252.059 496.715,255.239 L528.533,255.239 C518.988,252.059 515.806,248.877 512.624,239.332 L512.624,239.332 Z M631.409,255.239 L675.952,255.239 C667.786,253.118 663.756,248.877 657.923,239.332 L625.151,181 C621.545,187.681 617.197,197.014 626.106,213.241 L628.651,217.696 C633.53,226.817 625.151,227.877 617.833,228.938 C629.181,229.999 637.559,233.498 640.742,239.332 C645.938,248.983 641.166,253.118 631.409,255.239 L631.409,255.239 Z M601.394,239.332 C598.212,248.877 595.031,252.059 585.486,255.239 L617.303,255.239 C607.758,252.059 604.577,248.877 601.394,239.332 L601.394,239.332 Z" id="Logo1-White"/>
        </g>
    </g>
</svg>