<?xml version="1.0" encoding="UTF-8"?>
<svg width="156px" height="217px" viewBox="0 0 156 217" version="1.1" xmlns="http://www.w3.org/2000/svg" xmlns:xlink="http://www.w3.org/1999/xlink">
    <!-- Generator: Sketch 53 (72520) - https://sketchapp.com -->
    <title>loog-black</title>
    <desc>Created with Sketch.</desc>
    <defs>
        <polygon id="path-1" points="0 0 156 0 156 217 0 217"></polygon>
    </defs>
    <g id="Taverna" stroke="none" stroke-width="1" fill="none" fill-rule="evenodd">
        <g id="Assets" transform="translate(-808.000000, -332.000000)">
            <g id="loog-black" transform="translate(808.000000, 332.000000)">
                <mask id="mask-2" fill="white">
                    <use xlink:href="#path-1"></use>
                </mask>
                <g id="Clip-2"></g>
                <path d="M128.087944,104.24136 C138.78056,102.832966 145.244882,99.4652716 145.244882,91.1969894 C145.244882,80.9709622 135.921071,78.1541749 125.909732,78.1541749 C131.755279,81.0316554 135.921071,84.8288714 135.921071,91.1969894 C135.921071,97.5666636 131.755279,101.424573 122.801795,104.24136 C129.083297,108.956755 129.952081,125.919728 156,125.919728 C148.105934,124.694971 145.494892,118.694124 142.260387,113.058994 C139.649345,108.466541 134.241316,104.852961 128.087944,104.24136 L128.087944,104.24136 Z M128.012941,176.391576 C123.29869,175.171487 120.970472,172.731309 117.603149,167.240908 L98.6758284,133.688459 C96.5929324,137.532362 94.0803317,142.89982 99.2258504,152.234124 L100.697784,154.795688 C103.513522,160.04176 98.6758284,160.651805 94.4490965,161.261849 C101.004047,161.871894 105.84174,163.885663 107.677752,167.240908 C110.679434,172.792002 107.924636,175.171487 102.288473,176.391576 L128.012941,176.391576 Z M103.53071,78.1541749 C103.557274,78.180631 103.574462,78.2039745 103.602588,78.2304305 L103.574462,78.2304305 C106.94491,81.7086181 107.555872,83.9651604 107.555872,90.4313212 L107.555872,108.732657 C107.555872,115.198818 106.94491,117.45536 103.574462,120.933548 L103.611964,120.933548 C103.580712,120.963116 103.561962,120.989573 103.53071,121.020697 L119.69542,121.020697 C116.274971,117.53006 115.654634,115.26418 115.654634,108.773119 L115.654634,90.4017527 C115.654634,83.9106921 116.274971,81.6448124 119.69542,78.1541749 L103.53071,78.1541749 Z M96.2554189,65.4755198 L121.98145,65.4755198 C117.264073,64.2554307 114.937417,61.8152525 111.568532,56.3248517 L92.6412116,22.7724023 C90.5583156,26.6163053 88.0488401,31.9837635 93.1943587,41.3180674 L94.661605,43.879632 C97.480468,49.1257037 92.6412116,49.7357482 88.4144797,50.3457928 C94.9694299,50.9558373 99.8071237,52.9696068 101.644697,56.3248517 C104.647943,61.8759458 101.89002,64.2554307 96.2554189,65.4755198 L96.2554189,65.4755198 Z M120.590769,2.31723549 C120.681397,2.30478561 120.659522,2.22853004 120.636083,2.17250554 C120.323571,1.00844097 119.00008,0 117.418767,0 C115.068673,0 113.56705,1.83947102 113.56705,3.96995819 C113.56705,6.11133901 115.068673,7.97259734 117.418767,7.97259734 C119.00008,7.97259734 120.336071,6.95326272 120.636083,5.78919814 C120.659522,5.73317365 120.67046,5.65536184 120.590769,5.64446819 L119.611042,5.51218813 C119.556352,5.50129447 119.489162,5.48884458 119.456348,5.56665639 C119.276654,6.02263355 118.553187,6.84276996 117.373452,6.84276996 C115.915582,6.84276996 114.834288,5.68959904 114.834288,3.96995819 C114.834288,2.261211 115.915582,1.12982738 117.373452,1.12982738 C118.553187,1.12982738 119.276654,1.93907013 119.456348,2.3950473 C119.489162,2.47130286 119.556352,2.46040921 119.611042,2.44951556 L120.590769,2.31723549 Z M108.39653,7.93991638 C108.463721,7.93991638 108.509035,7.89478553 108.509035,7.82942362 L108.509035,0.143173718 C108.509035,0.077811803 108.463721,0.0326809573 108.39653,0.0326809573 L107.351176,0.0326809573 C107.285548,0.0326809573 107.238671,0.077811803 107.240234,0.143173718 L107.240234,7.82942362 C107.238671,7.89478553 107.285548,7.93991638 107.351176,7.93991638 L108.39653,7.93991638 Z M101.882207,1.16250834 C101.947834,1.16250834 101.994711,1.11893373 101.994711,1.05201558 L101.994711,0.143173718 C101.994711,0.077811803 101.947834,0.0326809573 101.882207,0.0326809573 L96.4929284,0.0326809573 C96.4257382,0.0326809573 96.3819865,0.077811803 96.3819865,0.143173718 L96.383549,1.05201558 C96.383549,1.11893373 96.4257382,1.16250834 96.4929284,1.16250834 L98.4523819,1.16250834 C98.5195721,1.16250834 98.5633239,1.20763918 98.5633239,1.2730011 L98.5633239,7.82942362 C98.5633239,7.89478553 98.6102007,7.93991638 98.6758284,7.93991638 L99.7118074,7.93991638 C99.777435,7.93991638 99.8211867,7.89478553 99.8211867,7.82942362 L99.8211867,1.2730011 C99.8211867,1.20763918 99.8649385,1.16250834 99.9321287,1.16250834 L101.882207,1.16250834 Z M91.1802156,7.93991638 C91.2474057,7.93991638 91.2911575,7.89478553 91.2895949,7.82942362 L91.2895949,0.143173718 C91.2895949,0.077811803 91.2474057,0.0326809573 91.1802156,0.0326809573 L90.1348612,0.0326809573 C90.067671,0.0326809573 90.0239192,0.077811803 90.0239192,0.143173718 L90.0239192,5.34411463 C90.0239192,5.44526997 89.967667,5.48884458 89.8895388,5.40013913 L85.8346889,0.0995991079 C85.8018751,0.0544682621 85.7565608,0.0326809573 85.7018711,0.0326809573 L85.001843,0.0326809573 C84.9346528,0.0326809573 84.8893385,0.077811803 84.8893385,0.143173718 L84.8893385,7.82942362 C84.8893385,7.89478553 84.9346528,7.93991638 85.001843,7.93991638 L86.0471974,7.93991638 C86.112825,7.93991638 86.1581393,7.89478553 86.1581393,7.82942362 L86.1581393,2.62848271 C86.1581393,2.52732736 86.2253295,2.4728591 86.2909572,2.57245821 L90.3458071,7.87299823 C90.3786209,7.91812907 90.4239353,7.93991638 90.4801875,7.93991638 L91.1802156,7.93991638 Z M88.10978,65.4755198 C82.5970592,63.6453862 80.7594856,61.8152525 78.9203494,56.3248517 C77.0827758,61.8152525 75.2467647,63.6453862 69.7340438,65.4755198 L88.10978,65.4755198 Z M79.7875716,7.82942362 L79.7875716,6.92058176 C79.7875716,6.85366361 79.7438199,6.810089 79.6766297,6.810089 L76.37806,6.810089 C76.3124324,6.810089 76.2686806,6.76495815 76.2686806,6.69959624 L76.2686806,4.74496375 C76.2686806,4.67960183 76.3124324,4.63447099 76.37806,4.63447099 L78.6734645,4.63447099 C78.7406547,4.63447099 78.7844064,4.59089638 78.7844064,4.52397823 L78.7844064,3.61513637 C78.7844064,3.54821822 78.7406547,3.50464361 78.6734645,3.50464361 L76.37806,3.50464361 C76.3124324,3.50464361 76.2686806,3.45951276 76.2686806,3.39415085 L76.2686806,1.27455733 C76.2686806,1.20763918 76.3124324,1.16250834 76.37806,1.16250834 L79.5641252,1.16250834 C79.6297528,1.16250834 79.6766297,1.11893373 79.6766297,1.05201558 L79.6766297,0.143173718 C79.6766297,0.077811803 79.6297528,0.0326809573 79.5625626,0.0326809573 L75.1123843,0.0326809573 C75.0451941,0.0326809573 74.9998798,0.077811803 74.9998798,0.143173718 L74.9998798,7.82942362 C74.9998798,7.89634177 75.0451941,7.93991638 75.1123843,7.93991638 L79.6766297,7.93991638 C79.7438199,7.93991638 79.7875716,7.89634177 79.7875716,7.82942362 L79.7875716,7.82942362 Z M69.4293441,7.93991638 C69.4965343,7.93991638 69.5418486,7.89478553 69.5418486,7.82942362 L69.5418486,0.143173718 C69.5418486,0.077811803 69.4965343,0.0326809573 69.4293441,0.0326809573 L68.3855523,0.0326809573 C68.3183621,0.0326809573 68.2746104,0.077811803 68.2746104,0.143173718 L68.2746104,3.50464361 C68.2746104,3.57156176 68.2277335,3.61513637 68.1605433,3.61513637 L64.4869586,3.61513637 C64.4182059,3.61513637 64.3744541,3.57156176 64.3744541,3.50464361 L64.3744541,0.143173718 C64.3744541,0.077811803 64.3307024,0.0326809573 64.2635122,0.0326809573 L63.2181578,0.0326809573 C63.149405,0.0326809573 63.1072158,0.077811803 63.1072158,0.143173718 L63.1072158,7.82942362 C63.1072158,7.89478553 63.149405,7.93991638 63.2181578,7.93991638 L64.2635122,7.93991638 C64.3307024,7.93991638 64.3744541,7.89478553 64.3744541,7.82942362 L64.3744541,4.85701274 C64.3744541,4.79009459 64.4182059,4.74496375 64.4869586,4.74496375 L68.1605433,4.74496375 C68.2277335,4.74496375 68.2746104,4.79009459 68.2746104,4.85701274 L68.2746104,7.82942362 C68.2746104,7.89478553 68.3183621,7.93991638 68.3855523,7.93991638 L69.4293441,7.93991638 Z M69.3668416,22.7724023 L60.1805361,22.7724023 C64.89635,25.0305008 67.7136504,29.0564835 69.3668416,34.973293 L69.3668416,22.7724023 Z M57.7257502,1.16250834 C57.7929404,1.16250834 57.8382547,1.11893373 57.8382547,1.05201558 L57.8382547,0.143173718 C57.8382547,0.077811803 57.7929404,0.0326809573 57.7257502,0.0326809573 L52.3364718,0.0326809573 C52.2708442,0.0326809573 52.2270924,0.077811803 52.2270924,0.143173718 L52.2270924,1.05201558 C52.2270924,1.11893373 52.2708442,1.16250834 52.3364718,1.16250834 L54.2959253,1.16250834 C54.3646781,1.16250834 54.4084298,1.20763918 54.4084298,1.2730011 L54.4084298,7.82942362 C54.4084298,7.89478553 54.4521816,7.93991638 54.5193718,7.93991638 L55.5553508,7.93991638 C55.6209784,7.93991638 55.6662927,7.89478553 55.6662927,7.82942362 L55.6662927,1.2730011 C55.6662927,1.20763918 55.7100445,1.16250834 55.7772347,1.16250834 L57.7257502,1.16250834 Z M46.9909452,4.53642812 L46.9909452,0.143173718 C46.9909452,0.077811803 46.9456308,0.0326809573 46.8800032,0.0326809573 L45.8315237,0.0326809573 C45.7658961,0.0326809573 45.7221443,0.077811803 45.7221443,0.143173718 L45.7221443,4.53642812 C45.6987059,6.10044536 44.9643015,6.84276996 43.6611242,6.84276996 C42.3251332,6.84276996 41.5782283,6.10044536 41.5782283,4.53642812 L41.5782283,0.143173718 C41.5782283,0.077811803 41.532914,0.0326809573 41.4657238,0.0326809573 L40.421932,0.0326809573 C40.3547418,0.0326809573 40.3094275,0.077811803 40.3094275,0.143173718 L40.3094275,4.53642812 C40.3094275,6.02263355 40.921952,7.97259734 43.6611242,7.97259734 C46.3784206,7.97259734 46.9909452,6.02263355 46.9909452,4.53642812 L46.9909452,4.53642812 Z M36.9046035,22.7724023 L27.7167354,22.7724023 L27.7167354,34.973293 C29.3699267,29.0564835 32.1856645,25.0305008 36.9046035,22.7724023 L36.9046035,22.7724023 Z M35.8967507,7.93991638 C35.9748788,7.93991638 36.0076926,7.88389188 35.9748788,7.80608008 L32.6122441,0.11049276 C32.5919308,0.0560244982 32.5356785,0.0342371933 32.4778637,0.0342371933 L31.9575303,0.0342371933 C31.9012781,0.0342371933 31.8450258,0.0560244982 31.82315,0.11049276 L28.4402019,7.80608008 C28.4058256,7.88389188 28.4402019,7.93991638 28.5183301,7.93991638 L29.5308706,7.93991638 C29.5839978,7.93991638 29.6308746,7.91812907 29.6511879,7.86210458 L30.276213,6.44281729 C30.2980889,6.38679279 30.3543411,6.36500549 30.4105934,6.36500549 L34.0138627,6.36500549 C34.0716776,6.36500549 34.1154293,6.38679279 34.1388677,6.44281729 L34.7607677,7.86210458 C34.7842061,7.91812907 34.8388958,7.93991638 34.8935855,7.93991638 L35.8967507,7.93991638 Z M33.5575945,5.10134181 C33.5919708,5.17915361 33.5575945,5.23517811 33.4810289,5.23517811 L30.9434272,5.23517811 C30.8668617,5.23517811 30.8324853,5.17915361 30.8668617,5.10134181 L32.1340999,2.10714363 C32.1684763,2.02933182 32.2559798,2.02933182 32.2887936,2.10714363 L33.5575945,5.10134181 Z M52.2474057,78.2304305 L33.8716695,78.2304305 C39.3828278,80.0605641 41.221964,81.8906977 43.0579751,87.3810985 C44.8971113,81.8906977 46.7346849,80.0605641 52.2474057,78.2304305 L52.2474057,78.2304305 Z M56.5038263,65.4755198 C53.1365039,61.9988884 52.5239793,59.7407899 52.5239793,53.274629 L52.5239793,34.973293 C52.5239793,28.5071322 53.1365039,26.2505899 56.5038263,22.7724023 L40.5797508,22.7724023 C43.9486358,26.2505899 44.5595977,28.5071322 44.5595977,34.973293 L44.5595977,53.274629 C44.5595977,59.7407899 43.9486358,61.9988884 40.5797508,65.4755198 L56.5038263,65.4755198 Z M25.7260307,78.2304305 L0,78.2304305 C4.71425137,79.4505196 7.04403221,81.8906977 10.4113546,87.3810985 L24.9931888,113.231736 C23.238431,117.014946 21.9946312,120.991129 21.65243,125.390608 C21.3821067,128.818996 19.955487,131.76962 17.1334989,133.464361 C16.886614,130.761179 16.8991145,128.009753 16.3303418,125.382827 C15.7350054,122.646964 12.4583116,121.059603 10.034777,121.868846 C8.57534356,122.355948 7.54405225,123.449982 6.44557074,124.450641 C6.30962779,124.657621 6.17055972,124.861488 6.01117833,125.051349 C5.97992708,125.157173 5.95023839,125.262997 5.92367483,125.370377 C5.75804319,125.994428 5.56584799,126.596691 5.32365079,127.18028 C5.34708923,129.639133 5.36740254,131.945474 5.38927842,134.198904 C5.5486598,134.681337 5.690853,135.168439 5.81273288,135.66021 C5.88461076,135.770703 6.1377459,136.167543 6.13462078,136.161318 C6.32056573,136.444553 6.50026043,136.729344 6.68151769,137.017248 C7.79093714,137.865396 9.05036259,138.582821 9.35974999,139.591262 C9.77070395,140.926513 9.33631155,142.758203 8.7159742,144.12769 C6.75339557,148.450914 4.53143155,152.65742 2.40947153,156.909057 C2.6407308,157.360365 2.87355263,157.810118 3.10637445,158.261426 C3.92046957,156.660059 4.72831444,155.057136 5.55178493,153.458882 C7.3956088,149.884207 10.4238551,148.765274 14.3443247,149.713021 C16.622541,150.263929 19.0554509,150.181449 21.416483,150.383759 L15.6912537,149.361312 C15.661565,149.174564 15.6318763,148.989372 15.6021876,148.802623 C19.2007693,148.100761 22.8040386,147.398898 26.4026203,146.697036 L26.407308,146.505619 C23.8650186,146.370226 21.3211667,146.23639 18.7773148,146.102554 C18.6913739,145.8769 18.6054329,145.652802 18.5179294,145.427147 L22.3212068,143.427384 C19.4710926,144.452944 16.5709764,145.361785 13.789615,146.547637 C11.8520373,147.373999 10.0785288,148.580082 8.23001723,149.614979 C8.08313634,149.437568 7.9346929,149.261713 7.78937457,149.084302 C8.75660083,147.498498 9.79726752,145.953155 10.6785528,144.32222 C12.5583156,140.839363 15.4943708,139.558581 19.3820265,139.211541 C23.4337514,138.850494 27.4792259,138.150188 31.4700108,137.280252 C31.5465764,139.704867 31.7793982,141.981641 32.5044273,144.200833 C32.82319,144.228846 33.1419528,144.256858 33.4607156,144.28487 C33.7716655,144.311326 34.0841781,144.339338 34.395128,144.367351 C35.9842542,144.666148 37.5733803,144.963389 39.1453183,145.26063 C37.4686886,146.048086 35.7748708,146.843322 34.0873032,147.635446 C34.9623382,149.079633 36.1186346,150.520708 37.6702592,151.989795 L64.9885412,176.391576 C64.9885412,169.49745 64.9885412,164.00705 58.7398534,158.09024 L34.6154493,136.541039 C40.1344204,135.089071 45.4674466,132.72048 51.4004968,133.40678 C51.4880003,133.417674 51.60363,133.198244 51.8598902,132.916566 C49.084779,130.015742 45.3940062,129.329442 41.6157298,128.638473 C42.5048279,126.475305 42.7954646,124.279456 40.4172443,123.040692 C38.6234224,122.10695 36.553027,121.691435 34.6216996,121.048709 C38.4359149,119.027159 38.4327898,119.052059 42.6704596,119.767927 C43.3736127,119.886201 44.129893,119.682334 44.8611723,119.62631 C45.9815297,119.55161 47.098762,119.476911 48.2206819,119.402212 C50.9645418,118.761042 53.7052767,118.119873 56.2366281,117.53006 C54.0381025,117.425792 51.5989423,117.309074 49.1582195,117.193913 C49.1254057,116.966702 49.0941544,116.741048 49.0613406,116.515394 C50.6442165,116.093654 52.228655,115.671914 53.8130935,115.250174 C54.3037381,114.777078 54.7162547,114.159252 55.2975279,113.849561 C58.2773348,112.260644 61.2680797,110.677952 64.3088265,109.075029 C64.296326,112.297994 64.1119436,114.472056 63.4697304,116.275733 C63.8884971,116.320864 64.3041388,116.364439 64.7197804,116.40957 C64.7604071,116.787735 64.7994711,117.167457 64.8385352,117.547178 C64.0728795,117.766608 63.3056613,117.986037 62.5400056,118.20391 C61.9837333,119.097189 61.2665171,119.968682 60.3336672,120.933548 L76.2577427,120.933548 C72.8888577,117.45536 72.2763332,115.198818 72.2763332,108.732657 L72.2763332,104.877861 C73.3185624,104.331622 74.3467286,103.790052 75.4108338,103.229807 C74.3514163,103.208019 73.3091871,103.217357 72.2763332,103.248481 L72.2763332,90.4313212 C72.2763332,83.9651604 72.8888577,81.7086181 76.2577427,78.2304305 L60.3336672,78.2304305 C63.7009896,81.7086181 64.3135142,83.9651604 64.3135142,90.4313212 L64.3135142,104.060837 C59.6336392,104.876304 55.2006491,106.280029 50.9223527,108.329592 C46.4940502,110.450742 42.2032533,112.839564 39.4703313,117.204806 C39.1687568,117.68724 38.4874795,117.947131 37.9655836,118.284834 C32.8716295,121.582498 27.7776754,124.87705 22.6743459,128.159152 C22.5352779,128.247857 22.2977683,128.184052 22.1055731,128.190277 C21.9368164,128.028428 21.7696222,127.865023 21.6039905,127.701619 C23.0024841,125.980422 24.2978485,124.162738 25.8197844,122.556702 C26.7604471,121.563824 27.6776714,120.556939 28.5417685,119.522042 L29.3386754,120.933548 C30.190272,119.363306 31.1028086,117.534728 31.5434513,115.28908 C32.5153652,113.588114 33.2794583,111.75798 33.7029128,109.717755 C33.0638247,110.791558 32.4356745,111.870029 31.8059618,112.946945 L31.8059618,112.943832 C31.5012621,113.463615 31.1934372,113.978729 30.8856124,114.496956 C30.0746424,115.864887 29.2558596,117.22815 28.3901999,118.561844 C27.6011058,119.772596 26.4057454,120.7219 25.1431948,121.568492 C25.7525943,119.957788 26.3604311,118.347084 26.9713931,116.736379 C27.1870267,116.171466 27.3995352,115.604996 27.6151689,115.040082 C27.6136063,115.041638 27.6136063,115.043195 27.6120438,115.043195 L27.6120438,115.041638 C26.1416723,117.520722 24.6650507,120.006031 23.0727994,122.687426 C23.549381,118.648993 24.7541168,115.022963 26.4229336,111.649044 C26.5791899,111.334684 26.7526343,111.031218 26.9151408,110.721527 C27.1714011,110.239094 27.4260988,109.755104 27.6964221,109.282009 C27.8917425,108.944305 28.0995633,108.614383 28.3011339,108.281349 C28.5683321,107.844047 28.8355303,107.406744 29.1183541,106.975667 C29.3324252,106.645745 29.5511839,106.318935 29.7746304,105.993682 C30.7152931,104.611744 31.7075203,103.257819 32.7513122,101.927237 C33.3372731,101.1818 33.7404143,100.142234 34.8873352,101.231599 C34.9514003,99.9445923 35.0139028,98.657585 35.1092191,96.738746 C33.3403983,99.4061346 31.5543892,101.995711 29.876197,104.594626 C29.5589968,103.881869 29.2105453,103.155107 28.7886534,102.387883 L20.3351897,87.3810985 C17.333507,81.8300045 20.0898674,79.4505196 25.7260307,78.2304305 L25.7260307,78.2304305 Z M46.2065387,115.598771 C51.5395649,112.838008 56.872591,110.078801 62.2040546,107.318039 C58.3257743,108.766894 54.4553067,110.24065 50.5660884,111.655269 C49.2269722,112.14237 47.8378541,112.486299 46.2659161,112.956282 C47.3315838,109.954303 52.4942906,107.711766 64.3135142,105.005472 C64.7650948,104.90276 65.2041748,104.800049 65.6745062,104.695781 C64.7666573,105.635748 64.246324,106.174205 63.7259906,106.711107 C63.9822509,106.78425 64.2400737,106.857393 64.5525862,106.947655 C64.8775993,107.039472 65.2448015,107.145297 65.7635723,107.293139 C59.6602027,111.535438 53.2490084,114.224614 46.5206138,116.229046 C46.4143595,116.018955 46.3112304,115.808863 46.2065387,115.598771 L46.2065387,115.598771 Z M38.9953123,127.56467 C37.2343043,128.042434 35.3248528,127.969291 33.2716455,128.148258 C33.3575864,128.560661 33.4669658,129.077331 33.5825955,129.62357 C33.3669618,129.59867 33.1497656,129.622014 33.1294523,129.569102 C32.6669338,128.324113 32.2637926,127.222298 30.4621579,127.356134 C29.2574222,127.446396 28.8449056,126.46908 29.4511799,125.373489 C30.4793461,123.512231 32.0700349,122.447766 34.2294964,122.362173 C36.6545935,122.267242 39.125005,122.432203 40.6703794,124.539347 C41.9423054,126.277663 40.2250491,127.231635 38.9953123,127.56467 L38.9953123,127.56467 Z M19.5523458,138.156412 C20.3820666,137.745566 21.1758484,137.112178 22.0493209,136.967448 C24.0697143,136.634414 24.8588084,135.042384 25.7697824,133.630878 C27.0354582,131.668464 30.226211,130.264739 32.523178,130.849884 C35.2123483,131.536184 37.7233864,131.274737 40.2594255,129.961273 C41.2032133,129.467947 42.6813975,129.640689 43.8080051,129.927036 C45.9237149,130.465494 47.9628591,131.307418 49.8238711,131.948587 C45.2955647,133.084639 40.8266357,134.029274 36.4686486,135.344294 C35.6592412,135.588623 34.8482712,135.818946 34.0357386,136.041488 C33.1747666,136.274923 32.3122321,136.494352 31.4434473,136.699776 C27.5714171,137.616399 23.6384471,138.2031 19.5523458,138.156412 L19.5523458,138.156412 Z M13.35366,125.779667 C13.9739974,128.834558 13.2411555,131.688695 12.1895509,134.545945 C11.7957851,135.616635 11.8614127,136.853843 11.6864057,138.257568 C9.94727353,139.135285 8.61753275,138.125288 7.53467687,136.506802 C5.26271085,133.109539 5.42677992,127.823005 7.87219039,124.740101 C9.30037261,122.944205 11.0551304,122.439985 12.8864538,123.084266 C13.0770864,124.106713 13.2317801,124.936187 13.3849113,125.75788 C13.3724108,125.765661 13.3645979,125.771886 13.35366,125.779667 L13.35366,125.779667 Z M23.9650226,128.776978 C24.535358,128.233851 25.4338315,127.717181 25.9354141,127.500864 C26.1885492,127.390371 26.0619816,127.455733 26.3088665,127.429277 C26.432309,127.416827 26.5541889,127.413715 26.6807564,127.41994 C27.5495412,127.472852 28.4417645,128.034653 29.5464963,129.1318 C29.5496214,129.138025 29.5589968,129.144249 29.565247,129.152031 C29.8746344,129.461722 30.1996474,129.810318 30.5465363,130.204046 C28.8495933,130.451488 26.2994912,131.50506 24.8978725,132.186691 C24.3290997,132.462145 24.8134941,132.231822 24.2759726,132.557075 C20.8570856,134.633094 18.0272847,137.555705 14.6802757,139.606824 C14.4912056,139.378058 14.3021355,139.149291 14.1130654,138.922081 C17.383509,135.526374 20.5445731,132.017061 23.9650226,128.776978 L23.9650226,128.776978 Z M27.7307985,114.727279 C27.693297,114.831546 27.6542329,114.935814 27.6151689,115.040082 C27.6729837,114.940483 27.7307985,114.840884 27.7901759,114.739728 C27.8651789,114.571655 27.9370568,114.402025 28.0104972,114.230839 C27.9167435,114.397357 27.8229897,114.562318 27.7307985,114.727279 L27.7307985,114.727279 Z M30.9606154,107.35072 C29.9746384,109.644612 28.9933491,111.938504 28.0104972,114.230839 C29.0933531,112.296438 30.1793341,110.358924 31.2637526,108.422966 C31.1731239,108.071257 31.076245,107.716435 30.9606154,107.35072 L30.9606154,107.35072 Z M22.0508834,176.391576 L40.4250571,176.391576 C34.9138988,174.561443 33.0763252,172.731309 31.2387516,167.240908 C29.4011779,172.731309 27.5636043,174.561443 22.0508834,176.391576 L22.0508834,176.391576 Z M46.0815337,208.952703 L42.1501262,208.952703 L42.1501262,209.245276 C42.49389,209.268619 42.7282744,209.315306 42.8532794,209.385337 C43.0579751,209.502055 43.1595416,209.726153 43.1595416,210.059187 L43.1595416,215.661637 C43.1595416,216.000896 43.0485997,216.229663 42.8251533,216.35105 C42.6923354,216.42108 42.4673264,216.464655 42.1501262,216.475548 L42.1501262,216.768121 L46.0705958,216.768121 L46.0705958,216.475548 C45.751833,216.459986 45.526824,216.416411 45.3971313,216.344825 C45.1736848,216.224994 45.0611803,215.997784 45.0611803,215.661637 L45.0611803,213.397314 L45.3549421,213.103185 L47.4659642,215.730111 C47.5706559,215.860835 47.6456589,215.966659 47.6847229,216.042915 C47.7284747,216.120727 47.7472254,216.182976 47.7472254,216.232776 C47.7472254,216.337043 47.6831604,216.403962 47.5550302,216.430418 C47.4253376,216.456874 47.187828,216.47088 46.8346889,216.475548 L46.8346889,216.768121 L50.73172,216.768121 L50.73172,216.475548 C50.5770263,216.459986 50.4629593,216.441311 50.3863937,216.416411 C50.3145158,216.391512 50.2395128,216.332375 50.1645098,216.239001 L46.6190553,211.870646 C47.7190993,210.750156 48.4660042,210.043625 48.8628951,209.754165 C49.2582235,209.464705 49.756681,209.295075 50.356705,209.245276 L50.356705,208.952703 L46.9940703,208.952703 L46.9940703,209.245276 C47.3784607,209.268619 47.6378461,209.299744 47.7722265,209.341762 C47.9066068,209.382224 47.973797,209.477155 47.973797,209.623441 C47.973797,209.729265 47.9472335,209.817971 47.8972315,209.891114 C47.8441043,209.964257 47.7331624,210.087199 47.5597179,210.259942 L45.0611803,212.781044 L45.0611803,210.30196 C45.0611803,209.863101 45.1314957,209.586091 45.2705637,209.47093 C45.4111944,209.352656 45.6815177,209.279513 46.0815337,209.245276 L46.0815337,208.952703 Z M52.7599263,193.225382 C52.0161465,194.011281 51.6442566,194.980816 51.6442566,196.133987 C51.6458191,197.274708 52.003646,198.222456 52.7224248,198.978786 C53.4943307,199.789585 54.5224969,200.194207 55.8131736,200.194207 C56.5241396,200.194207 57.1663528,200.114839 57.7398133,199.957659 C58.3163989,199.798923 58.7320405,199.640187 58.9883008,199.483007 L58.9883008,198.006139 C58.9883008,197.609299 59.0539284,197.336957 59.1851837,197.192227 C59.3148764,197.047497 59.580512,196.966573 59.9805281,196.952567 L59.9805281,196.658438 L56.0006811,196.658438 L56.0006811,196.952567 C56.4272607,196.960348 56.7116471,196.997698 56.8507152,197.064616 C57.0663488,197.175109 57.1741656,197.403876 57.1741656,197.754029 L57.1741656,198.974118 C57.1741656,199.212222 57.1241636,199.388077 57.0257222,199.504794 C56.8569654,199.711774 56.5241396,199.816041 56.0288072,199.816041 C55.1131456,199.816041 54.4959333,199.437876 54.1771706,198.683102 C53.8584078,197.928327 53.6974638,197.069285 53.6974638,196.104418 C53.6974638,194.931016 53.8677832,194.019062 54.2146721,193.371668 C54.5584358,192.724274 55.1037702,192.400577 55.8522377,192.400577 C56.5397652,192.400577 57.1554149,192.71338 57.7023118,193.335874 C57.9929484,193.67669 58.2773348,194.138892 58.5570335,194.72715 L58.8507953,194.72715 L58.8507953,192.020855 L58.5273448,192.020855 C58.480468,192.198266 58.4179655,192.330546 58.3429625,192.416139 C58.2648343,192.503288 58.1648303,192.546863 58.0413879,192.546863 C57.9241957,192.546863 57.6273088,192.458157 57.1507272,192.27919 C56.6757082,192.100223 56.197564,192.009961 55.7162947,192.009961 C54.5178092,192.009961 53.5333948,192.414583 52.7599263,193.225382 L52.7599263,193.225382 Z M58.0476381,208.952703 L53.9865379,208.952703 L53.9865379,209.245276 C54.3349894,209.260838 54.5771866,209.304413 54.7131295,209.374443 C54.936576,209.491161 55.0475179,209.718371 55.0475179,210.059187 L55.0475179,215.661637 C55.0475179,216.004009 54.9303257,216.235888 54.6959413,216.355718 C54.550623,216.428861 54.3162386,216.467767 53.9865379,216.475548 L53.9865379,216.768121 L58.0476381,216.768121 L58.0476381,216.475548 C57.6851236,216.475548 57.4116751,216.419524 57.2304179,216.312144 C57.0491606,216.201651 56.958532,215.985334 56.958532,215.661637 L56.958532,210.059187 C56.958532,209.715259 57.0725991,209.48338 57.2991706,209.369775 C57.4351136,209.3013 57.6851236,209.260838 58.0476381,209.245276 L58.0476381,208.952703 Z M61.5290276,208.952703 L61.5165271,211.283945 L61.8524781,211.285501 C61.9243559,210.456027 62.2368685,209.89267 62.7947033,209.59076 C63.0962779,209.428912 63.5306703,209.340206 64.0978805,209.324644 L64.0978805,215.418864 C64.0978805,215.839048 64.0228775,216.122283 63.8744341,216.2639 C63.7244281,216.403962 63.4228535,216.475548 62.9697103,216.475548 L62.9697103,216.768121 L67.1089387,216.768121 L67.1089387,216.475548 C66.6370448,216.475548 66.3260948,216.405518 66.1745262,216.265457 C66.0276453,216.126952 65.9526423,215.843717 65.9526423,215.418864 L65.9526423,209.324644 C66.5292279,209.340206 66.9651829,209.428912 67.2573821,209.59076 C67.7730278,209.886445 68.0886654,210.449802 68.1980448,211.283945 L68.5324332,211.285501 L68.5199327,208.952703 L61.5290276,208.952703 Z M66.2526544,196.359641 L68.9621379,199.973221 L71.3841099,199.973221 L71.3841099,199.697767 C71.2794182,199.689986 71.1887896,199.671311 71.1184743,199.643299 C71.0465964,199.615287 70.9794062,199.55615 70.9137786,199.465888 L68.4464922,196.172893 C68.8621339,196.098193 69.2558997,195.923895 69.626227,195.65311 C70.1137465,195.292063 70.3590689,194.79718 70.3590689,194.168461 C70.3590689,193.3172 69.8934252,192.727386 68.9637005,192.400577 C68.4824312,192.237172 67.8558436,192.157804 67.0808125,192.157804 L63.3431628,192.157804 L63.3431628,192.450376 C63.7416163,192.484613 63.9947514,192.546863 64.110381,192.635568 C64.2791378,192.770961 64.3650787,193.061977 64.3650787,193.50706 L64.3650787,198.623965 C64.3650787,199.053486 64.2932008,199.332052 64.1494451,199.459663 C64.0056893,199.587275 63.735366,199.661974 63.3431628,199.680649 L63.3431628,199.973221 L67.26832,199.973221 L67.26832,199.680649 C66.8589286,199.665087 66.5886053,199.587275 66.4510998,199.445657 C66.3151569,199.302484 66.2479667,199.030142 66.2479667,198.623965 L66.2479667,196.359641 L66.2526544,196.359641 Z M67.8777195,195.667116 C67.5511439,195.867871 67.0073721,195.975251 66.2479667,195.986144 L66.2479667,193.043302 C66.2479667,192.867447 66.2964061,192.739836 66.3917224,192.662024 C66.4886013,192.585769 66.6917344,192.546863 67.0026844,192.546863 C67.5714572,192.546863 67.9636604,192.767848 68.1808566,193.206707 C68.3058616,193.466598 68.3683641,193.82142 68.3683641,194.269616 C68.3683641,194.999491 68.204295,195.466362 67.8777195,195.667116 L67.8777195,195.667116 Z M74.1764093,133.688459 L55.8006731,133.688459 C61.313394,135.518592 63.149405,137.348726 64.9885412,142.839127 C66.8245523,137.348726 68.6636884,135.518592 74.1764093,133.688459 L74.1764093,133.688459 Z M73.5279458,209.900451 C72.709163,210.680125 72.2966465,211.69946 72.2966465,212.956899 C72.2966465,214.225231 72.7279138,215.235228 73.5857606,215.983778 C74.3607917,216.662297 75.3202051,217 76.4671261,217 C77.214031,217 77.8953083,216.799246 78.5078328,216.39618 C78.8500341,216.170526 79.2484875,215.804811 79.7031932,215.30059 L79.3563043,215.017355 C78.9578509,215.439095 78.610962,215.74723 78.3140751,215.938647 C77.8015545,216.270125 77.2484074,216.435086 76.6515085,216.435086 C75.6764694,216.435086 75.0108177,215.935535 74.6514283,214.931762 C74.4592331,214.39953 74.3623543,213.717898 74.3623543,212.888424 C74.3623543,211.763266 74.5264233,210.865317 74.8529989,210.196136 C75.1795745,209.528511 75.7295965,209.195476 76.5077527,209.195476 C77.1968428,209.195476 77.8109299,209.50828 78.3562643,210.130774 C78.6453384,210.47159 78.9312873,210.933792 79.210986,211.522049 L79.5047478,211.522049 L79.5047478,208.817311 L79.1812973,208.817311 C79.1594215,208.940253 79.1031692,209.060084 79.0156657,209.172133 C78.9265996,209.285738 78.8078449,209.341762 78.6594014,209.341762 C78.6047117,209.341762 78.3265756,209.253057 77.8328058,209.07409 C77.3374735,208.895123 76.8483914,208.804861 76.3624344,208.804861 C75.2452021,208.804861 74.2998518,209.170576 73.5279458,209.900451 L73.5279458,209.900451 Z M74.6342402,199.973221 L81.4220121,199.973221 L81.893906,197.56728 L81.568893,197.56728 C81.207941,198.354736 80.7891742,198.891637 80.321968,199.177985 C79.8531992,199.464332 79.246925,199.607506 78.5078328,199.607506 C78.1140671,199.607506 77.8546817,199.560819 77.7281141,199.473669 C77.599984,199.384964 77.5374815,199.218447 77.5374815,198.974118 L77.5374815,196.172893 C78.1984455,196.172893 78.6562763,196.308285 78.910974,196.575958 C79.1672343,196.845187 79.3375536,197.310501 79.4203694,197.968789 L79.7156937,197.968789 L79.7156937,194.06108 L79.4203694,194.06108 C79.2938018,194.716256 79.1156697,195.166008 78.8828479,195.411893 C78.6453384,195.659335 78.1984455,195.779165 77.5374815,195.771384 L77.5374815,193.094658 C77.5374815,192.876785 77.5859209,192.730499 77.6812372,192.657356 C77.7796787,192.584212 78.0031251,192.546863 78.360952,192.546863 C79.2922393,192.546863 79.9375776,192.683812 80.2891542,192.959265 C80.6454185,193.234719 80.8954285,193.743608 81.0423094,194.489045 L81.3251332,194.489045 L81.3251332,192.157804 L74.6342402,192.157804 L74.6342402,192.450376 C74.9717537,192.469051 75.2030129,192.514182 75.3311431,192.585769 C75.5561521,192.70093 75.6655315,192.928141 75.6655315,193.264288 L75.6655315,198.866737 C75.6655315,199.198216 75.5592772,199.42387 75.342081,199.545256 C75.2030129,199.623068 74.9655034,199.668199 74.6358027,199.680649 L74.6342402,199.973221 Z M87.3019352,208.952703 L83.3736528,208.952703 L83.3736528,209.245276 C83.7174166,209.279513 83.9486758,209.329312 84.0643055,209.397787 C84.2565007,209.512948 84.3549421,209.733934 84.3549421,210.059187 L84.3549421,215.661637 C84.3549421,215.997784 84.2455627,216.224994 84.0314916,216.344825 C83.9033615,216.416411 83.6830402,216.459986 83.3736528,216.475548 L83.3736528,216.768121 L87.3019352,216.769677 L87.3019352,216.475548 C86.9800473,216.464655 86.7534757,216.422636 86.6175328,216.355718 C86.3831484,216.235888 86.2643936,216.004009 86.2643936,215.661637 L86.2643936,212.995805 L89.0332545,212.995805 L89.0332545,215.661637 C89.0332545,215.993115 88.9254377,216.218769 88.7098041,216.340156 C88.570736,216.419524 88.3332265,216.464655 88.0004007,216.475548 L88.0004007,216.768121 L91.953684,216.768121 L91.953684,216.475548 C91.6442966,216.464655 91.4208502,216.42108 91.2880324,216.35105 C91.0598982,216.229663 90.9442686,216.000896 90.9442686,215.661637 L90.9442686,210.059187 C90.9442686,209.730821 91.0473977,209.50828 91.2567811,209.391562 C91.3802236,209.319975 91.6114828,209.271732 91.953684,209.245276 L91.953684,208.952703 L88.0004007,208.952703 L88.0004007,209.245276 C88.3504147,209.268619 88.5926119,209.315306 88.720742,209.385337 C88.9270003,209.502055 89.0332545,209.726153 89.0332545,210.059187 L89.0332545,212.458903 L86.2643936,212.458903 L86.2643936,210.059187 C86.2643936,209.726153 86.3753356,209.500498 86.5925318,209.380668 C86.7253496,209.309081 86.9628591,209.263951 87.3019352,209.245276 L87.3019352,208.952703 Z M85.2831043,199.973221 L92.0708762,199.973221 L92.5427701,197.56728 L92.2208822,197.56728 C91.8568052,198.354736 91.4411635,198.891637 90.9723947,199.177985 C90.5020634,199.464332 89.8989142,199.607506 89.1582595,199.607506 C88.7644938,199.607506 88.5051084,199.560819 88.3785408,199.473669 C88.2519732,199.384964 88.1879082,199.218447 88.1879082,198.974118 L88.1879082,196.172893 C88.8504347,196.172893 89.3082656,196.308285 89.5629633,196.575958 C89.8192235,196.845187 89.9864177,197.310501 90.0707961,197.968789 L90.3645579,197.968789 L90.3645579,194.06108 L90.0707961,194.06108 C89.9457911,194.716256 89.7660964,195.166008 89.5301494,195.411893 C89.2973276,195.659335 88.8504347,195.779165 88.1879082,195.771384 L88.1879082,193.094658 C88.1879082,192.876785 88.2363476,192.730499 88.3332265,192.657356 C88.4269802,192.584212 88.6551144,192.546863 89.0082535,192.546863 C89.9442285,192.546863 90.5880043,192.683812 90.9411435,192.959265 C91.2927201,193.234719 91.5442926,193.743608 91.6927361,194.489045 L91.9771225,194.489045 L91.9771225,192.157804 L85.2831043,192.157804 L85.2831043,192.450376 C85.6190553,192.469051 85.8534396,192.514182 85.9815698,192.585769 C86.2034537,192.70093 86.3159582,192.928141 86.3159582,193.264288 L86.3159582,198.866737 C86.3159582,199.198216 86.2081414,199.42387 85.9940703,199.545256 C85.8534396,199.623068 85.6159301,199.668199 85.2831043,199.680649 L85.2831043,199.973221 Z M94.1412717,176.391576 C88.6301134,174.561443 86.7909772,172.731309 84.9549661,167.240908 C83.1173925,172.731309 81.2798189,174.561443 75.7686606,176.391576 L94.1412717,176.391576 Z M91.5708562,111.78288 C89.7332826,117.273281 87.8941464,119.103414 82.3829881,120.933548 L91.5708562,120.933548 L91.5708562,111.78288 Z M84.8315237,94.5802466 C82.7486277,97.2025043 78.3406386,98.9719447 75.6436556,99.1555806 C78.3406386,99.3376602 82.6876878,101.107101 84.8315237,103.730915 L84.8315237,94.5802466 Z M91.5708562,78.2304305 L82.3829881,78.2304305 C87.8941464,80.0605641 89.7332826,81.8906977 91.5708562,87.3810985 L91.5708562,78.2304305 Z M101.979086,208.952703 L95.2881926,208.952703 L95.2881926,209.245276 C95.6241436,209.263951 95.8569654,209.309081 95.9850956,209.380668 C96.208542,209.49583 96.3210465,209.72304 96.3210465,210.059187 L96.3210465,215.661637 C96.3210465,215.993115 96.2132297,216.218769 95.9975961,216.340156 C95.8569654,216.419524 95.6210185,216.464655 95.2881926,216.475548 L95.2881926,216.768121 L102.075965,216.768121 L102.544733,214.36218 L102.222845,214.36218 C101.860331,215.149635 101.443127,215.686537 100.974358,215.972884 C100.507152,216.259232 99.90244,216.402405 99.1602228,216.402405 C98.766457,216.402405 98.5070716,216.355718 98.380504,216.268569 C98.2539365,216.18142 98.1898714,216.013346 98.1898714,215.769017 L98.1898714,212.967792 C98.8539605,212.967792 99.3117913,213.103185 99.566489,213.372414 C99.8211867,213.641643 99.9915061,214.105401 100.072759,214.763689 L100.369646,214.763689 L100.369646,210.85598 L100.072759,210.85598 C99.9477543,211.511155 99.7696222,211.960908 99.5352378,212.206793 C99.2992908,212.454234 98.8539605,212.574065 98.1898714,212.566283 L98.1898714,209.889557 C98.1898714,209.671684 98.2383108,209.525398 98.3367523,209.452255 C98.4320686,209.379112 98.6586402,209.341762 99.0133419,209.341762 C99.9461918,209.341762 100.589968,209.478711 100.944669,209.754165 C101.296246,210.029619 101.549381,210.538508 101.694699,211.285501 L101.979086,211.285501 L101.979086,208.952703 Z M104.047919,199.444101 L100.504027,195.075746 C101.605633,193.955256 102.350976,193.248725 102.746304,192.959265 C103.141632,192.669805 103.64009,192.500176 104.241676,192.450376 L104.241676,192.157804 L100.879042,192.157804 L100.879042,192.450376 C101.263432,192.47372 101.522817,192.504844 101.657198,192.546863 C101.791578,192.587325 101.858768,192.682255 101.858768,192.828542 C101.858768,192.932809 101.832205,193.023071 101.782203,193.096214 C101.730638,193.169357 101.618134,193.2923 101.443127,193.465042 L98.9461517,195.986144 L98.9461517,193.50706 C98.9461517,193.068202 99.016467,192.791192 99.1539725,192.67603 C99.2946031,192.557756 99.566489,192.484613 99.9665051,192.450376 L99.9665051,192.157804 L96.0350976,192.157804 L96.0350976,192.450376 C96.3788613,192.47372 96.6116832,192.520407 96.7382507,192.590437 C96.9413839,192.707155 97.0460756,192.931253 97.0460756,193.264288 L97.0460756,198.866737 C97.0460756,199.205997 96.9335711,199.433207 96.7101246,199.55615 C96.5773068,199.626181 96.3507352,199.668199 96.0350976,199.680649 L96.0350976,199.973221 L99.9555671,199.973221 L99.9555671,199.680649 C99.6368044,199.665087 99.4102328,199.621512 99.2805401,199.549925 C99.0586562,199.430095 98.9461517,199.202884 98.9461517,198.866737 L98.9461517,196.602414 L99.2399135,196.308285 L101.350936,198.935212 C101.455627,199.065936 101.53063,199.17176 101.569694,199.248015 C101.613446,199.325827 101.632197,199.388077 101.632197,199.437876 C101.632197,199.542144 101.568132,199.609062 101.440002,199.635518 C101.310309,199.661974 101.072799,199.67598 100.71966,199.680649 L100.71966,199.973221 L104.616691,199.973221 L104.616691,199.680649 C104.461998,199.665087 104.346368,199.644855 104.272928,199.621512 C104.199487,199.596612 104.124484,199.537475 104.047919,199.444101 L104.047919,199.444101 Z M106.769903,216.228107 C106.644898,216.382174 106.369887,216.464655 105.937057,216.475548 L105.937057,216.768121 L108.569975,216.769677 L108.569975,216.475548 C108.087143,216.456874 107.771505,216.327706 107.615249,216.089602 C107.51837,215.941759 107.469931,215.689649 107.469931,215.334827 L107.469931,210.798399 L107.548059,210.798399 L112.657639,216.982881 L112.981089,216.982881 L112.981089,210.166567 C112.981089,209.814858 113.043591,209.587648 113.163909,209.486492 C113.287351,209.386893 113.531111,209.305969 113.895188,209.245276 L113.895188,208.952703 L111.398213,208.952703 L111.398213,209.245276 C111.827918,209.279513 112.112304,209.380668 112.254497,209.547186 C112.399816,209.715259 112.471694,209.995381 112.471694,210.385997 L112.471694,213.784816 L112.413879,213.784816 L108.421531,208.952703 L105.960495,208.952703 L105.960495,209.245276 C106.104251,209.263951 106.218318,209.309081 106.301134,209.379112 C106.382387,209.447586 106.604271,209.679466 106.958973,210.076306 L106.958973,215.554257 C106.958973,215.851498 106.894908,216.077152 106.769903,216.228107 L106.769903,216.228107 Z" id="Fill-1" fill="#000000" mask="url(#mask-2)"></path>
            </g>
        </g>
    </g>
</svg>