<svg xmlns="http://www.w3.org/2000/svg" xmlns:xlink="http://www.w3.org/1999/xlink" width="18px" height="20px" viewBox="0 0 18 20" version="1.1">
    <!-- Generator: Sketch 53 (72520) - https://sketchapp.com -->
    <title>phone-icon copy</title>
    <desc>Created with Sketch.</desc>
    <g id="Taverna" stroke="none" stroke-width="1" fill="none" fill-rule="evenodd">
        <g id="Assets" transform="translate(-1425.000000, -557.000000)" fill="#000000" fill-rule="nonzero">
            <g id="phone-icon-copy" transform="translate(1425.000000, 557.000000)">
                <path d="M15.9841248,13.9205351 C14.8183178,12.8870298 13.6319029,12.2590006 12.4808155,13.2925051 L11.7919299,13.9144373 C11.2885131,14.3686923 10.3523351,16.4844811 6.7342113,12.1705881 C3.11608823,7.86584127 5.26812105,7.19513002 5.77448167,6.74697354 L6.46631177,6.12199201 C7.61151088,5.08848753 7.178749,3.78669776 6.35149725,2.44527525 L5.8539687,1.63432398 C5.02377242,0.298999239 4.11703364,-0.579022767 2.96889076,0.451433225 L2.34771562,1.015441 C1.83841124,1.39652675 0.41942355,2.64343975 0.07498076,5.00922126 C-0.340117001,7.84754954 0.96994371,11.1004993 3.96394787,14.6674633 C6.95500827,18.2374766 9.8871895,20.0301049 12.6603975,19.9996176 C14.9655153,19.9721796 16.3609513,18.6917309 16.796657,18.2252819 L17.4178321,17.6612749 C18.565975,16.6308181 17.8535378,15.5790211 16.6847862,14.5455158 L15.9841248,13.9205351 Z" id="Path"/>
            </g>
        </g>
    </g>
</svg>