<svg xmlns="http://www.w3.org/2000/svg" xmlns:xlink="http://www.w3.org/1999/xlink" width="24px" height="24px" viewBox="0 0 24 24" version="1.1">
    <!-- Generator: Sketch 46.2 (44496) - http://www.bohemiancoding.com/sketch -->
    <title>zoom-icon</title>
    <desc>Created with Sketch.</desc>
    <defs/>
    <g id="Assets" stroke="none" stroke-width="1" fill="none" fill-rule="evenodd">
        <g id="zoom-icon" fill="#FFFFFF" fill-rule="nonzero">
            <path d="M9.40229573,1 C4.75962596,1 1,4.75962596 1,9.40229573 C1,14.0449655 4.75962596,17.8045915 9.40229573,17.8045915 C11.3623858,17.8045915 13.1652663,17.1122046 14.593523,15.984986 L15.3427723,16.7342353 C15.0283556,17.3262758 15.1387359,18.0822153 15.6371203,18.5805997 L19.5706791,22.5409174 C20.1827892,23.1530275 21.179558,23.1530275 21.7916681,22.5409174 L22.5409174,21.7916681 C23.1530275,21.179558 23.1530275,20.1827892 22.5409174,19.5706791 L18.5805997,15.6371203 C18.0788707,15.1353913 17.3262758,15.0484244 16.7342353,15.3695312 L15.984986,14.6202819 C17.1188948,13.1886806 17.8045915,11.3724198 17.8045915,9.40229573 C17.8045915,4.75962596 14.0449655,1 9.40229573,1 Z M9.40229573,2.55201641 C13.1853359,2.55201641 16.2525751,5.61925552 16.2525751,9.40229573 C16.2525751,13.1853359 13.1853359,16.2525751 9.40229573,16.2525751 C5.61925552,16.2525751 2.55201641,13.1853359 2.55201641,9.40229573 C2.55201641,5.61925552 5.61925552,2.55201641 9.40229573,2.55201641 Z M5.06735335,7.23482454 C4.62583144,7.95062564 4.37162185,8.7935311 4.37162185,9.69664367 C4.37162185,12.2889127 6.46216098,14.3794518 9.05442998,14.3794518 C10.0545442,14.3794518 10.9944505,14.0550003 11.7570792,13.5231669 C11.5530428,13.5465811 11.3255921,13.5499258 11.1148656,13.5499258 C7.76331331,13.5499258 5.06735335,10.8539667 5.06735335,7.50241358 C5.06735335,7.41210206 5.0640087,7.32513605 5.06735335,7.23482454 Z"/>
        </g>
    </g>
</svg>