<svg xmlns="http://www.w3.org/2000/svg" xmlns:xlink="http://www.w3.org/1999/xlink" width="42px" height="98px" viewBox="0 0 42 98" version="1.1">
    <!-- Generator: Sketch 53 (72520) - https://sketchapp.com -->
    <title>Group 3</title>
    <desc>Created with Sketch.</desc>
    <defs>
        <polygon id="path-1" points="0 -1.42108547e-14 41.6528 -1.42108547e-14 41.6528 97.3225 0 97.3225"/>
    </defs>
    <g id="Taverna" stroke="none" stroke-width="1" fill="none" fill-rule="evenodd">
        <g id="Assets" transform="translate(-968.000000, -206.000000)">
            <g id="Group-3" transform="translate(968.000000, 206.000000)">
                <mask id="mask-2" fill="white">
                    <use xlink:href="#path-1"/>
                </mask>
                <g id="Clip-2"/>
                <path d="M41.6528,56.5095 C41.3618,56.3365 41.0698,56.1635 40.7788,55.9915 C39.2808,58.0165 37.7828,60.0385 36.2848,62.0635 C37.5468,60.9655 38.8098,59.8685 40.0578,58.7845 C39.2838,61.8995 38.5048,65.0375 37.7248,68.1775 C39.0348,64.2875 40.3438,60.3995 41.6528,56.5095 M38.9988,40.5435 C39.0638,40.4775 38.9678,40.2325 38.9158,39.8275 C34.8678,40.0975 31.9428,42.6525 28.9588,45.2735 C27.8568,43.0495 26.3428,41.2955 23.8398,42.3885 C21.9528,43.2145 20.2898,44.6225 18.5388,45.7645 C19.4438,41.2395 19.4608,41.2595 22.7638,38.2785 C23.3098,37.7845 23.6428,37.0235 24.0738,36.3845 C24.7408,35.4145 25.4078,34.4455 26.0758,33.4745 C27.3568,30.7815 28.6388,28.0905 29.8198,25.6075 C28.3138,27.3385 26.6418,29.2595 24.9708,31.1795 C24.7738,31.0505 24.5788,30.9205 24.3828,30.7895 C25.0818,29.1995 25.7808,27.6105 26.4808,26.0195 C26.4308,25.2895 26.2198,24.5245 26.3558,23.8355 C27.8808,16.1015 29.4588,8.3815 31.1558,-0.0005 C25.1828,7.2645 21.3188,14.9555 19.2388,23.6095 C18.0148,28.7045 17.0858,33.8765 18.6998,39.1325 C18.8788,39.7145 18.6388,40.4505 18.5628,41.1135 C17.8188,47.5685 17.0718,54.0235 16.3098,60.4765 C16.2888,60.6515 16.0848,60.8025 15.9658,60.9635 C15.7318,60.9885 15.4968,61.0135 15.2618,61.0375 C14.8328,58.7015 14.2628,56.3835 14.0038,54.0265 C13.3998,48.5345 12.5018,43.1835 9.1548,38.6905 C10.3078,42.1745 11.5498,45.6305 12.5698,49.1565 C12.9998,50.6395 12.9598,52.2775 12.7988,53.8985 C11.6448,51.7195 10.4908,49.5405 9.3378,47.3635 C10.3068,50.2815 11.2778,53.2095 12.3248,56.3665 C6.6138,49.9355 4.1228,42.2275 2.4968,34.0875 C2.2978,33.0915 1.7528,32.0415 3.3408,31.8525 C2.3848,30.9115 1.4278,29.9715 -0.0002,28.5685 C3.2148,40.0405 5.5258,51.0995 13.4998,59.4025 C15.9868,61.9905 17.3468,65.1995 16.8328,68.6865 C14.5768,67.0195 12.4508,65.1095 10.0458,63.7625 C7.5368,62.3585 4.1828,63.9465 3.2388,66.4955 C2.6708,68.0295 2.8508,69.6295 2.9148,71.2225 C2.9878,71.4775 3.0558,71.7325 3.0998,71.9935 C3.1628,72.0915 3.2258,72.1895 3.2898,72.2855 C3.6678,72.8525 4.0088,73.4275 4.3048,74.0295 C6.2268,75.7085 8.0298,77.2845 9.7928,78.8255 C10.2688,79.0285 10.7398,79.2455 11.1998,79.4875 C11.3328,79.5025 11.8028,79.5705 11.7968,79.5705 C12.1358,79.6135 12.4758,79.6605 12.8138,79.7115 C14.1908,79.3895 15.5638,78.8515 16.5468,79.2935 C17.8488,79.8805 18.9908,81.5005 19.6488,82.9555 C21.7288,87.5525 23.5508,92.2825 25.4728,96.9605 C25.9728,97.0815 26.4728,97.2025 26.9728,97.3225 C26.2598,95.5485 25.5398,93.7785 24.8348,91.9995 C23.2568,88.0175 24.3508,84.7595 27.6278,82.1995 C29.5308,80.7125 31.0438,78.6605 32.7328,76.8635 L28.2278,80.8525 C28.0638,80.7475 27.9008,80.6445 27.7378,80.5385 C29.5268,77.1025 31.3158,73.6635 33.1048,70.2265 C33.0558,70.1815 33.0068,70.1365 32.9578,70.0905 C31.2058,72.0825 29.4538,74.0755 27.7008,76.0695 C27.4708,75.9855 27.2398,75.9005 27.0098,75.8165 L27.9228,71.3155 C26.8718,74.3615 25.6958,77.3675 24.8128,80.4675 C24.1978,82.6265 23.9828,84.9155 23.5898,87.1475 C23.3568,87.1455 23.1238,87.1435 22.8898,87.1425 C22.2888,85.2525 21.7648,83.3305 21.0708,81.4825 C19.5888,77.5315 20.4978,74.2405 22.7478,70.8135 C25.4678,66.6715 27.8408,62.2315 29.9938,57.7185 C32.7878,51.8635 34.2928,45.2645 38.9988,40.5435 M17.0208,76.4645 C16.5738,78.4965 14.9278,78.8915 12.9708,78.6595 C8.8648,78.1755 4.8698,74.3895 4.0658,70.2515 C3.5968,67.8415 4.3428,66.0545 6.0308,64.9955 C6.9468,65.5455 7.6898,65.9925 8.4268,66.4365 C8.4258,66.4485 8.4248,66.4625 8.4238,66.4765 C11.1938,68.0775 12.9338,70.6505 14.4678,73.4875 C15.0428,74.5505 16.0448,75.3525 17.0208,76.4645 M25.9828,8.9985 C26.1228,10.3925 26.2028,11.1915 26.2838,11.9885 C26.7358,11.6645 27.1878,11.3415 28.0548,10.7195 C27.3898,18.6555 25.3208,25.7725 22.5128,32.6765 C22.2828,32.6165 22.0518,32.5575 21.8218,32.4975 C23.1368,26.2175 24.4528,19.9355 25.7678,13.6555 C24.3788,17.8385 23.0118,22.0305 21.5878,26.1985 C21.0978,27.6325 20.4628,29.0095 19.8098,30.6225 C18.1108,27.5635 19.8938,21.4665 25.9828,8.9985 M22.9978,55.4345 C19.3668,61.6825 20.9018,68.5225 20.0068,74.9425 L19.1078,74.9345 C18.5948,69.9055 17.9218,64.8885 17.6258,59.8455 C17.4278,56.4675 18.6778,55.5325 22.9978,55.4345 M26.4288,46.6785 C25.6588,48.4535 24.3618,49.9695 23.1708,51.7785 C23.5468,51.9915 24.0188,52.2595 24.5158,52.5415 C24.3588,52.7025 24.2328,52.8965 24.1798,52.8765 C22.9148,52.3945 21.7978,51.9645 20.7348,53.5325 C20.0238,54.5825 18.9988,54.2465 18.5408,52.9935 C17.7638,50.8645 17.9698,48.8235 19.3038,46.9935 C20.8018,44.9395 22.5318,43.0265 25.1688,43.2175 C27.3388,43.3745 26.9658,45.4415 26.4288,46.6785 M36.8468,40.8285 C34.7928,45.3275 32.6278,49.6445 30.8228,54.1265 C28.5418,59.7905 25.8898,65.1845 22.0408,69.9455 C22.2598,68.9805 22.2818,67.8915 22.7368,67.0745 C23.7868,65.1885 23.0648,63.4425 22.5598,61.7175 C21.8588,59.3235 22.8378,55.7385 24.7798,54.2585 C27.0558,52.5275 28.4818,50.2855 29.1048,47.3005 C29.3378,46.1835 30.4268,45.0915 31.3798,44.3645 C33.1688,43.0015 35.1418,41.9105 36.8468,40.8285" id="Fill-1" fill="#231F20" mask="url(#mask-2)"/>
            </g>
        </g>
    </g>
</svg>